<svg xmlns="http://www.w3.org/2000/svg" viewBox="0 0 863.22 312.2"><title>logo</title><g id="Layer_2" data-name="Layer 2"><g id="Layer_1-2" data-name="Layer 1"><path d="M652.4,199.31c.36-4.41.38-8.89,1.17-13.22,1.18-6.48,2.94-12.86,4.4-19.3,1.21-5.31-.9-7.19-6.34-6.93-6,.29-12.6,5.16-16.32-.55-4.4.94-7.24,2-10.12,2.07-7.25.25-14.52.08-21.89.08,12.19-16.21,30.78-18.88,48.45-22.51,18.16-3.73,36.61-7.22,55.06-8.09,20.48-1,41.07,1.81,60.17,10.29,8.7,3.87,16.86,9,16,20.73-.07,1.1.57,2.26.91,3.39,3.89,12.89,1.86,17.81-9.32,26.16-19,14.2-41.25,21.51-62.76,30.43a28.84,28.84,0,0,0-9.07,5.37c2.77.73,5.55,1.41,8.3,2.21,22.58,6.53,45.19,13,67.71,19.71,6.07,1.82,9,7.79,5.53,12-5.4,6.61-5.64,14.22-6.57,21.88-.82,6.72-8.64,16.77-15.74,19.78.1-2.21.19-4.19.33-7.35-2.94,0-6.38-1-8.47.21-4.48,2.66-9,2.63-13.72,3.48-7.28,1.3-14.19,1.09-21.35,1.15-14.3.1-28.63,1.34-42.89.75-9.22-.38-18.33-3.18-28.26-5l-6.56,7.32-1.58-.72c2-15.05,2.68-30.43,6.43-45,2.31-9,3.77-17.5,3.64-26.72-.06-4.63,3-9.26,4.49-14,5.33-17.29,10.63-34.58,15.71-51.94.38-1.28-1-3.09-1.61-4.66-1.39,1.21-3.66,2.18-4,3.65-2.27,8.66-4.09,17.45-6.1,26.18-.72,3.12-1.57,6.22-2.36,9.34ZM671.45,219c10.72-4.28,19.19-7.69,27.68-11.05q31.49-12.47,63-24.86c4.51-1.77,6.67-4.37,2.31-8-5.28-4.45-10.57-9.9-16.83-12a113.58,113.58,0,0,0-55.75-4.14,9.26,9.26,0,0,0-6,5.25C682,176,678.64,188,675.39,200.07,673.89,205.64,673,211.39,671.45,219Zm-23,73.83c38-7.87,75.09-14.14,112.81-23.75-2-2.25-2.52-3.31-3.24-3.52-15.11-4.19-30.12-8.95-45.45-12.07a22.5,22.5,0,0,1-13.17-7.39L762.57,260l.52-2.08a9.39,9.39,0,0,0-2.29-1.34c-19.78-5.07-39.59-10-59.34-15.17-5.79-1.51-10.1-.38-13.34,6.67l14.09,6.74c-3.45.71-6.53.15-9.6-.47-7.83-1.59-15.65-3.25-23.49-4.79-4.94-1-7.5.66-8.94,6.05-2.59,9.75-6.35,19.18-9.55,28.77C649.85,286.74,649.36,289.19,648.41,292.83Z"/><path d="M111.77,176.57c3.61,1.8,6.35,2.78,8.6,4.42,1.74,1.28,3.93,3.33,4,5.16.27,3.69-.69,7.47-1.24,11.2-3.7,25.35-.53,49.36,17.35,68.81,5.48,6,14.41,9.73,22.47,12.08,9.42,2.75,16.69-1.86,20.13-11.08,3.2-8.57,6.22-17.39,7.72-26.37,2.91-17.39,4.7-35,6.92-52.45,1-7.91,1.94-15.83,2.91-23.74l1.91-.45,3.47,9.38,4.57-3c-.76,18.6-1.49,36.73-2.22,54.87l2.38.83,11.75-22.66a2.16,2.16,0,0,1,.52,1.32c-1.33,13-1.24,25.84-5.69,38.77-3.39,9.84-10.82,16.16-14.81,25-.56,1.22-1.66,2.79-2.78,3.06-11.55,2.8-17.3,13.61-26.79,19.09a21.68,21.68,0,0,1-11.34,2.49c-10.2-.48-21.08,1.05-28.72-8.76-3.49-4.47-8.05-8.1-12.22-12-.76-.72-2.16-1.61-2.92-1.36-8.77,2.87-11.22-4.47-13.86-9.47-5.71-10.79-10.65-22-9.81-34.85.27-4.13-.63-8.34-1-12.52l-2-1.26c-6.09,7.2-12.29,14.3-18.2,21.65-2.48,3.07-4.06,6.86-6.51,10-12.08,15.39-24.21,30.73-36.58,45.89a23.3,23.3,0,0,1-8.23,6.2c-6.64,3-13.58,5.32-20.4,7.92L0,303c3.8-7.88,7.64-15.74,11.38-23.65q13.14-27.78,26.17-55.61c3.3-7,7-13.9,9.71-21.15,2.1-5.64,2.92-11.77,4.31-17.68l-2.34-1.64-27.42,10.9-.87-2.06c4.15-1.84,8.38-3.53,12.42-5.6a19.59,19.59,0,0,0,6.09-4.53c.62-.75-.6-4.39-.93-4.38-5.9.14-9.37-3.31-12.8-7.46-1.11-1.35-3.81-1.4-6.83-2.39,1.43-1.71,2.37-3.62,3.89-4.51,12.59-7.38,25.24-14.65,38-21.66,1.23-.68,4.46.06,5.25,1.2,4.85,7,10.59,7.33,17.54,3.52,2.13-1.17,4.71-1.52,9.44-3-9.24,35.43-25.81,65.55-39.51,97.1C67.11,225.47,82,211.47,93.7,195.21,99.24,187.53,106,182.29,111.77,176.57Z"/><path d="M641.83,105.82,596.54,62.48c11.41,22.36,27,38.58,48.39,51.63-12.91,4.53-23.22-.27-35-2.56l10.68,11.24h-29.9v.91c7.74.73,15.5,1.33,23.22,2.23,6.27.74,7.16,3.24,3.27,8.31a30.09,30.09,0,0,1-34.81,10.09c-10.95-4.17-21.85-8.48-34.39-13.37,15.8-11.64,30.2-23.35,50.39-23.22-.21-.89-.17-1.54-.43-1.71-18.53-11.45-27.18-29.13-30-49.76-2.3-17-3.1-34.24-4.48-51.38-.11-1.28.5-2.61,1-4.89,16.24,15.24,37.26,20,55.2,30.37,10.06,5.84,19,13.7,28.09,21.09,5,4.08,5.56,9,1.49,14.84-6.47,9.21-9,19.55-6.38,30.83a63.42,63.42,0,0,1,.84,7.44Z"/><path d="M220.86,302.33c1-5.52,1-11.58,3.34-16.46,8-16.54,16.77-32.61,30.31-45.71,5.25-5.08,8.33-12.39,13.05-19.69l-6.24.52a12.46,12.46,0,0,1,1-2.86c7.22-10.43,14.5-20.83,21.75-31.25.67-1,1.86-1.95,1.86-2.93,0-12.68,11.62-14.74,19-20.57,3.68-2.92,6.68-1.77,7.48,3.15q3,18.5,5.9,37c2.56,16.3,4.74,32.67,7.86,48.86.89,4.62,4.46,8.72,7.39,14.13l12.27-14.16-2.12,9.32,5.53-.68c.15.58.49,1.12.34,1.44-6.23,14-12.37,28-19,41.73-.62,1.3-5,2.22-6.58,1.35a137.84,137.84,0,0,1-15.09-10.43,6.05,6.05,0,0,1-2.43-3.92c-.22-9.3-.12-18.61-.12-27.48-1.91-1.85-4.64-3.78-6.43-6.35-3-4.35-5.58-1.95-8.25,0-16.82,12.14-33.54,24.43-50.46,36.42-5.45,3.86-11.43,7-17.17,10.42Zm75-101.71L293.6,200c-18.87,20.76-31.65,45.6-46.23,69.39,5.38-2.4,9.82-7.63,14.68-8.06,9.09-.79,14.51-7,21.65-10.63a26.66,26.66,0,0,1,9.73-3c3.63-.26,5.21-1.38,5-5Q297.12,221.65,295.87,200.62Z"/><path d="M402.37,156c.34,3.36.69,6.73,1.22,11.95,3-3.38,4.79-5.38,6.56-7.39,10.84-12.29,24.28-17.86,40.61-15.15,9.67,1.6,15.91,7.42,19,16.83.83,2.58,2.66,4.85,4.13,7.2,3.16,5,4.93,10,1.43,15.82-4.21,7-10.07,7.38-15.24.81-9.85-12.51-21.26-21.84-38.64-21-16.23.83-19.61,4.8-12.41,19.3,7.1,14.31,15.94,27.74,24,41.58,4.5,7.74,9.14,15.41,13.34,23.31,10.07,18.95,6.58,31-11.18,43.69-15.92,11.36-34.58,14.2-53.77,13.6-1.79-.06-3.57-1.73-5.28-2.78-1.15-.7-2.1-2.21-3.26-2.34-9.67-1.08-18.13-4.24-23.63-13.63,1-.45,2.52-1.73,4-1.71,4.32.06,9.42,2.7,10.87-4.48.07-.33,3.45-.28,5.19.07,17.94,3.55,35.84,7.72,54.3,4.14,3.49-.67,6.84-2,12.23-3.62-8.89-15-17.22-28.21-24.75-41.9-7-12.77-12.79-26.24-19.84-39-6.49-11.75-7.67-22.67,1.18-33.72,3.13-3.91,5.53-8.39,8.26-12.61Z"/><path d="M571.63,268.63l11.57-13.46.72.41-2.44,7.08,7.34-1.23-21.19,46.39c-7.25-4.85-13.38-8.74-19.21-13-1.24-.91-1.91-3.28-1.95-5-.14-6.82.15-13.65.08-20.47,0-1.74-.21-4-1.27-5.09-2.53-2.55-5.64-4.53-8.87-7-22.24,14.71-43.06,33.1-67.08,46.62l-2.57-1.65c.41-4.45-.55-9.68,1.47-13.22,8.11-14.27,17-28.08,25.88-41.92,4.37-6.85,9.24-13.38,14.8-21.37l-5.7.58c0-.7-.27-1.53,0-2,6.28-9.68,12.71-19.26,18.88-29a37.28,37.28,0,0,0,4.12-9.2c1.13-3.74,16.59-16.71,20.38-16,1.51.29,3.47,2.49,3.78,4.1,2.52,12.9,4.75,25.86,6.94,38.82,2.32,13.71,4.13,27.52,6.94,41.13C565.22,258.66,568.54,262.71,571.63,268.63ZM543.75,247c-8.21-13.24-6.23-27.77-9.08-42.48C516,225,504.56,248.93,490.55,271.31c5.31-2.47,9.82-7.93,14.54-8.11,6.68-.25,10.4-4.26,15.42-6.72s10.07-4.14,15.12-6.18C538.34,249.21,541,248.09,543.75,247Z"/><path d="M825.44,311.59l-2.1-13.21-1.74-1-8.77,12.3c1.11-9.59,2.36-17.61,2.84-25.67.19-3.32-1.35-6.72-2-10.1-.36-1.95-.94-4-.62-5.91,3.07-18.28,10.22-35.08,18.44-51.58,3.4-6.82,5.29-14.41,8.12-22.37l-28,18.88-1-.49c2.41-4.12,4.86-8.22,7.23-12.36,2.8-4.9,5.59-9.81,8.27-14.78.63-1.18,1.53-3.22,1-3.84-7.27-9,3.72-13.69,4.85-20.66.13-.81,2.68-2.16,3.23-1.82,5.06,3.11,9.44-.39,14.13-.76a19.14,19.14,0,0,1,12.53,3.9c1.8,1.46,1.37,7,.46,10.21-7.7,27.68-16,55.2-23.53,82.94-2.5,9.23-3.21,18.94-5.07,30.55l9.77-8.4.86.69q-8.1,17-16.21,34.08Z"/><path d="M674.24,31.71c6.31,13.66,13.32,26.86,18.6,40.72,7.54,19.78,1.24,36.73-16.49,48.27a12.77,12.77,0,0,1-5.59,1.73c4.4-15,8.94-29.89,5.81-44.84-2.74,12.1-5.3,24.73-8.53,37.18-2.14,8.27-4.67,8.63-10.81,2.47-14.62-14.66-16.49-34.06-5-51.64C659.24,54.86,666.2,44.08,674.24,31.71Z"/></g></g></svg>